<svg xmlns="http://www.w3.org/2000/svg" fill="none" viewBox="0 0 81 43">
  <defs/>
  <g clip-path="url(#clip0)">
    <path fill="#4CC7E9" d="M40.6 37.5L57 43V.1L40.6 5.5v32z"/>
    <path fill="#333740" d="M0 16.4h2.8V18a3.8 3.8 0 011.4-1.4 3.7 3.7 0 011.8-.5c2.5 0 4.4 2 4.4 5.3v.2c0 3.3-2 5.3-4.4 5.3a3.5 3.5 0 01-1.8-.5 3.6 3.6 0 01-1.4-1.3v5H0V16.5zm7.5 5.2v-.2c0-2-1-3-2.4-3s-2.4 1-2.4 3v.2c0 2 1 3 2.4 3 1.6 0 2.4-1 2.4-3zm4.3 1.4v-6.6h2.8v6.2c0 1.4.6 2 1.7 2 1.2 0 2.1-.7 2.1-2.2v-6h2.8v10.3h-2.7V25c-.3.6-.8 1.1-1.4 1.4a3.3 3.3 0 01-1.8.5c-2 0-3.4-1.2-3.4-3.9zm11.5-11.3h2.8v15h-2.8v-15zm5.3 11.9v-5.2h-1.3v-2h1.3v-2.2h2.7v2.2h2.1v2h-2v5c0 .8.3 1.2 1 1.2.4 0 .8 0 1-.2v2.2a4.8 4.8 0 01-1.6.2c-2 0-3.2-1-3.2-3.2zM64 16.4h2.8v2a3.4 3.4 0 011.3-1.6 3.2 3.2 0 012-.6V19c-2.1 0-3.3.6-3.3 2.6v5.2H64V16.4zm7.1 6.6v-6.6H74v6.2c0 1.4.6 2 1.7 2 1.2 0 2.1-.7 2.1-2.2v-6h2.8v10.3h-2.8V25c-.3.6-.7 1.1-1.3 1.4a3.3 3.3 0 01-1.9.5c-1.9 0-3.4-1.2-3.4-3.9z"/>
  </g>
  <defs>
    <clipPath id="clip0">
      <path fill="#fff" d="M0 0h80.6v42.9H0z"/>
    </clipPath>
  </defs>
</svg>
