<svg xmlns="http://www.w3.org/2000/svg" fill="none" viewBox="0 0 162 50">
  <defs/>
  <g clip-path="url(#clip-galo)">
    <path fill="#1D9CD8" d="M45.7 36.6A24.3 24.3 0 0034 2c-.3 3.8-.3 7.7.4 11.5a41.8 41.8 0 0011.2 23z"/>
    <path fill="#1D9CD8" d="M32.4 14c-.7-4.3-.7-8.5-.3-12.8a24.3 24.3 0 00-31.7 27 24.5 24.5 0 0027.9 20.4c6.9-1 12.5-4.8 16.2-10.2A45.2 45.2 0 0132.4 14z"/>
    <path fill="#1D1D1B" d="M67.2 10.7c0-1.6-.2-2.8-2-2.8C63 8 63 11 63 14c0 5 .5 6.1 2.4 6.1l1.7-.3V16h-1.9v-2.6h5.2v8.3c-.9.2-3.3.5-4.7.5-5.7 0-6.3-2.4-6.3-8.4 0-4.1.1-8.3 5.6-8.3 3.3 0 5.4 2 5.2 5.2h-3zm4.3 11.2L76 5.7h4.5l4.3 16.2h-3.6l-.9-3.6h-4.5l-.8 3.6h-3.5zm6.6-13L76.5 16h3.3L78 9zm7.7 13V5.7h3.5V19h5V22h-8.5zm9.3 0V5.7h3.5V19h5V22H95zm9-8.1c0-4.3 0-8.3 5.5-8.3s5.5 4.2 5.5 8.3c0 4.3 0 8.3-5.5 8.3s-5.5-4-5.5-8.3zm7.7 0c0-4.1-.1-5.9-2-5.9-2 0-2 1.8-2 5.9s0 5.9 2 5.9c1.9.1 2-1.8 2-6zM58.6 42.6l4.5-16.2h4.5l4.3 16.2h-3.7l-.8-3.6h-4.7l-.8 3.6h-3.3zm6.4-13l-1.6 7.1h3.3l-1.7-7zm7.6 4.9c0-4.3 0-8.3 5.5-8.3 3.4 0 4.8 1.9 4.6 5.4h-3.3c0-2.1-.3-3-1.3-3-2 0-2.1 1.7-2.1 5.9s.2 5.8 2 5.8c1.6 0 1.6-2 1.6-3.2H83c0 4.3-1.7 5.7-4.8 5.7-5.5.1-5.5-4-5.5-8.3zm11.8 0c0-4.3 0-8.3 5.6-8.3s5.5 4.1 5.5 8.3c0 4.3 0 8.3-5.5 8.3-5.6.1-5.6-4-5.6-8.3zm7.8 0c0-4.2-.2-5.9-2-5.9-2 0-2.1 1.7-2.1 5.9s.1 5.8 2 5.8c1.8.2 2.1-1.7 2.1-5.8zm16.4-8.1v11.5c0 2.4-1.4 5-5.5 5-3.8 0-5.6-1.9-5.6-5V26.4h3.5v11.2c0 2 .9 2.7 2 2.7 1.6 0 2.1-1 2.1-2.7V26.4h3.5zm6.4 16.5c-4.2 0-5-2.4-4.9-5.3h3.5c0 1.5 0 3 1.9 3 1.2 0 1.7-.8 1.7-2 0-3-6.9-3-6.9-8 0-2.5 1.2-4.4 5.3-4.4 3.3 0 5 1.6 4.7 4.8h-3.1c0-1.2-.2-2.4-1.6-2.4-1 0-1.7.7-1.7 1.7 0 3.1 7 2.8 7 8-.3 4.1-3.4 4.6-6 4.6zm17-16.5V29h-3.8v13.5h-3.4V29H121v-2.7h11zm.9 16.2V26.4h3.4v16.2H133zm5.3-8.1c0-4.3 0-8.3 5.5-8.3 3.5 0 4.9 1.9 4.7 5.4H145c0-2.1-.3-3-1.4-3-1.9 0-2 1.7-2 5.9s.1 5.8 2 5.8c1.6 0 1.6-2 1.6-3.2h3.3c0 4.3-1.8 5.7-4.9 5.7-5.5.1-5.5-4-5.5-8.3zm16.4 8.4c-4.1 0-5-2.4-4.8-5.3h3.4c0 1.5 0 3 2 3 1.1 0 1.6-.8 1.6-2 0-3-6.9-3-6.9-8 0-2.5 1.2-4.4 5.4-4.4 3.3 0 5 1.6 4.6 4.8h-3c0-1.2-.2-2.4-1.6-2.4-1 0-1.7.7-1.7 1.7 0 3.1 6.8 2.8 6.8 8-.1 4.1-3.2 4.6-5.8 4.6z"/>
  </g>
  <defs>
    <clipPath id="clip-galo">
      <path fill="#fff" d="M0 0h162v50H0z"/>
    </clipPath>
  </defs>
</svg>
