<svg xmlns="http://www.w3.org/2000/svg" xmlns:xlink="http://www.w3.org/1999/xlink"><defs>
    <clipPath id="clip0">
      <path fill="#fff" d="M0 0h80.6v42.9H0z"/>
    </clipPath>
  
    <clipPath id="clip0">
      <path fill="#fff" d="M0 0h162v50H0z"/>
    </clipPath>
  
    <clipPath id="clip0">
      <path fill="#fff" d="M0 0h57v30H0z"/>
    </clipPath>
  </defs><symbol id="logo-footer" viewBox="0 0 81 43">
  
  <g clip-path="url(#clip0)">
    <path fill="#4CC7E9" d="M40.6 37.5L57 43V.1L40.6 5.5v32z"/>
    <path fill="#333740" d="M0 16.4h2.8V18a3.8 3.8 0 011.4-1.4 3.7 3.7 0 011.8-.5c2.5 0 4.4 2 4.4 5.3v.2c0 3.3-2 5.3-4.4 5.3a3.5 3.5 0 01-1.8-.5 3.6 3.6 0 01-1.4-1.3v5H0V16.5zm7.5 5.2v-.2c0-2-1-3-2.4-3s-2.4 1-2.4 3v.2c0 2 1 3 2.4 3 1.6 0 2.4-1 2.4-3zm4.3 1.4v-6.6h2.8v6.2c0 1.4.6 2 1.7 2 1.2 0 2.1-.7 2.1-2.2v-6h2.8v10.3h-2.7V25c-.3.6-.8 1.1-1.4 1.4a3.3 3.3 0 01-1.8.5c-2 0-3.4-1.2-3.4-3.9zm11.5-11.3h2.8v15h-2.8v-15zm5.3 11.9v-5.2h-1.3v-2h1.3v-2.2h2.7v2.2h2.1v2h-2v5c0 .8.3 1.2 1 1.2.4 0 .8 0 1-.2v2.2a4.8 4.8 0 01-1.6.2c-2 0-3.2-1-3.2-3.2zM64 16.4h2.8v2a3.4 3.4 0 011.3-1.6 3.2 3.2 0 012-.6V19c-2.1 0-3.3.6-3.3 2.6v5.2H64V16.4zm7.1 6.6v-6.6H74v6.2c0 1.4.6 2 1.7 2 1.2 0 2.1-.7 2.1-2.2v-6h2.8v10.3h-2.8V25c-.3.6-.7 1.1-1.3 1.4a3.3 3.3 0 01-1.9.5c-1.9 0-3.4-1.2-3.4-3.9z"/>
  </g>
  
</symbol><symbol id="logo-galo" viewBox="0 0 162 50">
  
  <g clip-path="url(#clip0)">
    <path fill="#1D9CD8" d="M45.7 36.6A24.3 24.3 0 0034 2c-.3 3.8-.3 7.7.4 11.5a41.8 41.8 0 0011.2 23z"/>
    <path fill="#1D9CD8" d="M32.4 14c-.7-4.3-.7-8.5-.3-12.8a24.3 24.3 0 00-31.7 27 24.5 24.5 0 0027.9 20.4c6.9-1 12.5-4.8 16.2-10.2A45.2 45.2 0 0132.4 14z"/>
    <path fill="#1D1D1B" d="M67.2 10.7c0-1.6-.2-2.8-2-2.8C63 8 63 11 63 14c0 5 .5 6.1 2.4 6.1l1.7-.3V16h-1.9v-2.6h5.2v8.3c-.9.2-3.3.5-4.7.5-5.7 0-6.3-2.4-6.3-8.4 0-4.1.1-8.3 5.6-8.3 3.3 0 5.4 2 5.2 5.2h-3zm4.3 11.2L76 5.7h4.5l4.3 16.2h-3.6l-.9-3.6h-4.5l-.8 3.6h-3.5zm6.6-13L76.5 16h3.3L78 9zm7.7 13V5.7h3.5V19h5V22h-8.5zm9.3 0V5.7h3.5V19h5V22H95zm9-8.1c0-4.3 0-8.3 5.5-8.3s5.5 4.2 5.5 8.3c0 4.3 0 8.3-5.5 8.3s-5.5-4-5.5-8.3zm7.7 0c0-4.1-.1-5.9-2-5.9-2 0-2 1.8-2 5.9s0 5.9 2 5.9c1.9.1 2-1.8 2-6zM58.6 42.6l4.5-16.2h4.5l4.3 16.2h-3.7l-.8-3.6h-4.7l-.8 3.6h-3.3zm6.4-13l-1.6 7.1h3.3l-1.7-7zm7.6 4.9c0-4.3 0-8.3 5.5-8.3 3.4 0 4.8 1.9 4.6 5.4h-3.3c0-2.1-.3-3-1.3-3-2 0-2.1 1.7-2.1 5.9s.2 5.8 2 5.8c1.6 0 1.6-2 1.6-3.2H83c0 4.3-1.7 5.7-4.8 5.7-5.5.1-5.5-4-5.5-8.3zm11.8 0c0-4.3 0-8.3 5.6-8.3s5.5 4.1 5.5 8.3c0 4.3 0 8.3-5.5 8.3-5.6.1-5.6-4-5.6-8.3zm7.8 0c0-4.2-.2-5.9-2-5.9-2 0-2.1 1.7-2.1 5.9s.1 5.8 2 5.8c1.8.2 2.1-1.7 2.1-5.8zm16.4-8.1v11.5c0 2.4-1.4 5-5.5 5-3.8 0-5.6-1.9-5.6-5V26.4h3.5v11.2c0 2 .9 2.7 2 2.7 1.6 0 2.1-1 2.1-2.7V26.4h3.5zm6.4 16.5c-4.2 0-5-2.4-4.9-5.3h3.5c0 1.5 0 3 1.9 3 1.2 0 1.7-.8 1.7-2 0-3-6.9-3-6.9-8 0-2.5 1.2-4.4 5.3-4.4 3.3 0 5 1.6 4.7 4.8h-3.1c0-1.2-.2-2.4-1.6-2.4-1 0-1.7.7-1.7 1.7 0 3.1 7 2.8 7 8-.3 4.1-3.4 4.6-6 4.6zm17-16.5V29h-3.8v13.5h-3.4V29H121v-2.7h11zm.9 16.2V26.4h3.4v16.2H133zm5.3-8.1c0-4.3 0-8.3 5.5-8.3 3.5 0 4.9 1.9 4.7 5.4H145c0-2.1-.3-3-1.4-3-1.9 0-2 1.7-2 5.9s.1 5.8 2 5.8c1.6 0 1.6-2 1.6-3.2h3.3c0 4.3-1.8 5.7-4.9 5.7-5.5.1-5.5-4-5.5-8.3zm16.4 8.4c-4.1 0-5-2.4-4.8-5.3h3.4c0 1.5 0 3 2 3 1.1 0 1.6-.8 1.6-2 0-3-6.9-3-6.9-8 0-2.5 1.2-4.4 5.4-4.4 3.3 0 5 1.6 4.6 4.8h-3c0-1.2-.2-2.4-1.6-2.4-1 0-1.7.7-1.7 1.7 0 3.1 6.8 2.8 6.8 8-.1 4.1-3.2 4.6-5.8 4.6z"/>
  </g>
  
</symbol><symbol id="logo-pult" viewBox="0 0 57 30">
  
  <g clip-path="url(#clip0)">
    <path fill="#4CC7E9" d="M28.6 26.2L40.1 30V0L28.6 3.8v22.4z"/>
    <path fill="#333740" d="M0 11.4h2v1.1c.2-.4.5-.7 1-1a2.6 2.6 0 011.2-.3c1.8 0 3 1.3 3 3.7v.1c0 2.4-1.2 3.7-3 3.7-.4 0-.9 0-1.3-.3a2.5 2.5 0 01-1-1V21H0v-9.6zM5.3 15c0-1.5-.7-2.2-1.7-2.2S2 13.5 2 14.9v.1c0 1.5.7 2.2 1.7 2.2 1.1 0 1.7-.8 1.7-2.2zm3 1v-4.6h2v4.3c0 1 .4 1.5 1.2 1.5.8 0 1.5-.5 1.5-1.6v-4.2h2v7.2h-2v-1.1a2.4 2.4 0 01-1 1 2.3 2.3 0 01-1.2.2c-1.4 0-2.5-.8-2.5-2.7zm8.1-7.9h2v10.5h-2V8zm3.7 8.3v-3.6h-.9v-1.4h1V9.9H22v1.5h1.5v1.4H22v3.5c0 .5.3.8.7.8l.8-.1v1.5a3.4 3.4 0 01-1.2.2c-1.5 0-2.3-.8-2.3-2.2zm25-5h2v1.4c.2-.5.5-.9 1-1.1a2.3 2.3 0 011.3-.4v1.8c-1.5 0-2.3.5-2.3 1.9v3.6h-2v-7.2zm5 4.6v-4.6h2v4.3c0 1 .4 1.5 1.3 1.5.8 0 1.4-.5 1.4-1.6v-4.2h2v7.2h-2v-1.1a2.4 2.4 0 01-1 1 2.3 2.3 0 01-1.2.2c-1.4 0-2.4-.8-2.4-2.7z"/>
  </g>
  
</symbol></svg>